<?xml version="1.0" standalone="no"?><!DOCTYPE svg PUBLIC "-//W3C//DTD SVG 1.1//EN" "http://www.w3.org/Graphics/SVG/1.1/DTD/svg11.dtd"><svg t="1508906697280" class="icon" style="" viewBox="0 0 1025 1024" version="1.1" xmlns="http://www.w3.org/2000/svg" p-id="3876" xmlns:xlink="http://www.w3.org/1999/xlink" width="200.1953125" height="200"><defs><style type="text/css"></style></defs><path d="M1000.803878 388.49588c-10.161038-8.99688-25.690307-8.051834-34.688211 2.109204l-61.519126 69.484954c-4.493833-44.37519-15.419713-87.479738-32.656822-128.641976-22.511143-53.755003-54.789128-101.965668-95.933959-143.294799C691.231126 103.00184 577.673029 56.107892 456.249444 56.107892c-60.834147 0-119.860112 11.920073-175.440703 35.42848-53.672069 22.700562-101.869423 55.194586-143.25282 96.579007-41.383397 41.383397-73.877422 89.580751-96.579007 143.25282-23.508407 55.580591-35.42848 114.60758-35.42848 175.440703 0 60.834147 11.920073 119.860112 35.42848 175.440703 22.700562 53.672069 55.194586 101.869423 96.579007 143.25282s89.580751 73.877422 143.25282 96.579007c55.580591 23.508407 114.60758 35.42848 175.440703 35.42848 54.671381 0 108.114099-9.688003 158.841474-28.794727 49.002128-18.457581 94.109396-45.155391 134.065497-79.351113 10.310525-8.824868 11.515638-24.337754 2.691795-34.648279-8.824868-10.310525-24.337754-11.515638-34.648279-2.691795-35.605612 30.473899-75.789016 54.259779-119.433151 70.699282-45.169725 17.012879-92.78244 25.640136-141.517334 25.640136-54.220871 0-106.805574-10.613595-156.296095-31.546931-47.813397-20.222759-90.760267-49.180284-127.645736-86.066777-36.885469-36.885469-65.842994-79.832339-86.066777-127.645736-20.932312-49.490521-31.545907-102.075224-31.545907-156.296095s10.613595-106.805574 31.545907-156.295071c20.223783-47.813397 49.180284-90.760267 86.066777-127.645736 36.886493-36.885469 79.832339-65.842994 127.645736-86.066777 49.489497-20.932312 102.075224-31.545907 156.296095-31.545907 108.254372 0 209.444958 41.755067 284.926808 117.573776 67.949126 68.251172 108.312733 157.16435 115.471739 253.034828l-101.959525-72.125554c-11.078439-7.836818-26.414194-5.209529-34.252036 5.869935-7.837842 11.079463-5.210552 26.415217 5.868911 34.25306l140.842594 99.631209c4.291103 3.03582 9.251828 4.512263 14.179788 4.512263 6.824196 0 13.58491-2.834115 18.410482-8.284256l103.1759-116.535556C1011.909962 413.02203 1010.964916 397.491737 1000.803878 388.49588z" p-id="3877"></path></svg>